# WaveFront *.obj file (generated by Autodesk ATF)

mtllib w_orbit.mtl

g Körper1

v 18.000000 2.000000 20.000000
v 18.000000 0.000000 18.000000
v 20.000000 2.000000 18.000000
v 18.000000 18.000000 20.000000
v 20.000000 18.000000 18.000000
v 18.000000 20.000000 18.000000
v 20.000000 2.000000 2.000000
v 18.000000 0.000000 2.000000
v 18.000000 2.000000 0.000000
v 2.000000 2.000000 20.000000
v 0.000000 2.000000 18.000000
v 2.000000 0.000000 18.000000
v 18.000000 20.000000 2.000000
v 20.000000 18.000000 2.000000
v 18.000000 18.000000 0.000000
v 2.000000 18.000000 20.000000
v 2.000000 20.000000 18.000000
v 0.000000 18.000000 18.000000
v 2.000000 0.000000 2.000000
v 0.000000 2.000000 2.000000
v 2.000000 2.000000 0.000000
v 2.000000 20.000000 2.000000
v 2.000000 18.000000 0.000000
v 0.000000 18.000000 2.000000
vt -0.282843 0.000000 0.000000
vt -0.141421 -0.244949 0.000000
vt 0.000000 0.000000 0.000000
vt -0.141421 -0.244949 0.000000
vt 0.141421 -0.244949 0.000000
vt 0.000000 0.000000 0.000000
vt -0.282843 0.000000 0.000000
vt -0.141421 -0.244949 0.000000
vt 0.000000 0.000000 0.000000
vt 0.141421 0.244949 0.000000
vt -0.141421 0.244949 0.000000
vt 0.000000 0.000000 0.000000
vt -0.141421 0.244949 0.000000
vt -0.282843 0.000000 0.000000
vt 0.000000 0.000000 0.000000
vt 0.141421 1.300000 0.000000
vt -0.141421 1.300000 0.000000
vt 0.141421 -0.300000 0.000000
vt -0.141421 -0.300000 0.000000
vt 0.282843 0.000000 0.000000
vt 0.141421 0.244949 0.000000
vt 0.000000 0.000000 0.000000
vt 0.141421 -0.244949 0.000000
vt 0.282843 -0.000000 0.000000
vt 0.000000 0.000000 0.000000
vt -0.141421 0.244949 0.000000
vt -0.282843 -0.000000 0.000000
vt 0.000000 0.000000 0.000000
vt -0.141421 -1.300000 0.000000
vt 0.141421 -1.300000 0.000000
vt -0.141421 0.300000 0.000000
vt 0.141421 0.300000 0.000000
vt 1.800000 0.141421 0.000000
vt 0.200000 0.141421 0.000000
vt 1.800000 -0.141421 0.000000
vt 0.200000 -0.141421 0.000000
vt 1.300000 0.141421 0.000000
vt -0.300000 0.141421 0.000000
vt 1.300000 -0.141421 0.000000
vt -0.300000 -0.141421 0.000000
vt -1.300000 -0.141421 0.000000
vt 0.300000 -0.141421 0.000000
vt -1.300000 0.141421 0.000000
vt 0.300000 0.141421 0.000000
vt 1.800000 0.141421 0.000000
vt 0.200000 0.141421 0.000000
vt 1.800000 -0.141421 0.000000
vt 0.200000 -0.141421 0.000000
vt -0.141421 -1.300000 0.000000
vt 0.141421 -1.300000 0.000000
vt -0.141421 0.300000 0.000000
vt 0.141421 0.300000 0.000000
vt -1.300000 -0.141421 0.000000
vt 0.300000 -0.141421 0.000000
vt -1.300000 0.141421 0.000000
vt 0.300000 0.141421 0.000000
vt -1.800000 -0.141421 0.000000
vt -0.200000 -0.141421 0.000000
vt -1.800000 0.141421 0.000000
vt -0.200000 0.141421 0.000000
vt 1.300000 0.141421 0.000000
vt -0.300000 0.141421 0.000000
vt 1.300000 -0.141421 0.000000
vt -0.300000 -0.141421 0.000000
vt -1.800000 -0.141421 0.000000
vt -0.200000 -0.141421 0.000000
vt -1.800000 0.141421 0.000000
vt -0.200000 0.141421 0.000000
vt 0.141421 1.300000 0.000000
vt -0.141421 1.300000 0.000000
vt 0.141421 -0.300000 0.000000
vt -0.141421 -0.300000 0.000000
vt 0.200000 0.200000 0.000000
vt 1.800000 0.200000 0.000000
vt 0.200000 1.800000 0.000000
vt 1.800000 1.800000 0.000000
vt 0.200000 0.200000 0.000000
vt 1.800000 0.200000 0.000000
vt 0.200000 1.800000 0.000000
vt 1.800000 1.800000 0.000000
vt 0.800000 0.800000 0.000000
vt -0.800000 0.800000 0.000000
vt 0.800000 -0.800000 0.000000
vt -0.800000 -0.800000 0.000000
vt 1.800000 1.800000 0.000000
vt 0.200000 1.800000 0.000000
vt 1.800000 0.200000 0.000000
vt 0.200000 0.200000 0.000000
vt 0.200000 0.200000 0.000000
vt 1.800000 0.200000 0.000000
vt 0.200000 1.800000 0.000000
vt 1.800000 1.800000 0.000000
vt -0.800000 -0.800000 0.000000
vt 0.800000 -0.800000 0.000000
vt -0.800000 0.800000 0.000000
vt 0.800000 0.800000 0.000000
vn 0.057735 -0.057735 0.057735
vn 0.057735 -0.057735 0.057735
vn 0.057735 -0.057735 0.057735
vn 0.057735 0.057735 0.057735
vn 0.057735 0.057735 0.057735
vn 0.057735 0.057735 0.057735
vn 0.057735 -0.057735 -0.057735
vn 0.057735 -0.057735 -0.057735
vn 0.057735 -0.057735 -0.057735
vn -0.057735 -0.057735 0.057735
vn -0.057735 -0.057735 0.057735
vn -0.057735 -0.057735 0.057735
vn 0.057735 0.057735 -0.057735
vn 0.057735 0.057735 -0.057735
vn 0.057735 0.057735 -0.057735
vn 0.070711 0.000000 -0.070711
vn 0.070711 0.000000 -0.070711
vn 0.070711 0.000000 -0.070711
vn 0.070711 0.000000 -0.070711
vn -0.057735 0.057735 0.057735
vn -0.057735 0.057735 0.057735
vn -0.057735 0.057735 0.057735
vn -0.057735 -0.057735 -0.057735
vn -0.057735 -0.057735 -0.057735
vn -0.057735 -0.057735 -0.057735
vn -0.057735 0.057735 -0.057735
vn -0.057735 0.057735 -0.057735
vn -0.057735 0.057735 -0.057735
vn -0.070711 0.000000 -0.070711
vn -0.070711 0.000000 -0.070711
vn -0.070711 0.000000 -0.070711
vn -0.070711 0.000000 -0.070711
vn -0.070711 0.070711 0.000000
vn -0.070711 0.070711 0.000000
vn -0.070711 0.070711 0.000000
vn -0.070711 0.070711 0.000000
vn 0.000000 0.070711 -0.070711
vn 0.000000 0.070711 -0.070711
vn 0.000000 0.070711 -0.070711
vn 0.000000 0.070711 -0.070711
vn 0.000000 -0.070711 -0.070711
vn 0.000000 -0.070711 -0.070711
vn 0.000000 -0.070711 -0.070711
vn 0.000000 -0.070711 -0.070711
vn -0.070711 -0.070711 0.000000
vn -0.070711 -0.070711 0.000000
vn -0.070711 -0.070711 0.000000
vn -0.070711 -0.070711 0.000000
vn -0.070711 0.000000 0.070711
vn -0.070711 0.000000 0.070711
vn -0.070711 0.000000 0.070711
vn -0.070711 0.000000 0.070711
vn 0.000000 0.070711 0.070711
vn 0.000000 0.070711 0.070711
vn 0.000000 0.070711 0.070711
vn 0.000000 0.070711 0.070711
vn 0.070711 0.070711 0.000000
vn 0.070711 0.070711 0.000000
vn 0.070711 0.070711 0.000000
vn 0.070711 0.070711 0.000000
vn 0.000000 -0.070711 0.070711
vn 0.000000 -0.070711 0.070711
vn 0.000000 -0.070711 0.070711
vn 0.000000 -0.070711 0.070711
vn 0.070711 -0.070711 0.000000
vn 0.070711 -0.070711 0.000000
vn 0.070711 -0.070711 0.000000
vn 0.070711 -0.070711 0.000000
vn 0.070711 -0.000000 0.070711
vn 0.070711 -0.000000 0.070711
vn 0.070711 -0.000000 0.070711
vn 0.070711 -0.000000 0.070711
vn 0.100000 0.000000 0.000000
vn 0.100000 0.000000 0.000000
vn 0.100000 0.000000 0.000000
vn 0.100000 0.000000 0.000000
vn -0.100000 0.000000 0.000000
vn -0.100000 0.000000 0.000000
vn -0.100000 0.000000 0.000000
vn -0.100000 0.000000 0.000000
vn 0.000000 0.000000 -0.100000
vn 0.000000 0.000000 -0.100000
vn 0.000000 0.000000 -0.100000
vn 0.000000 0.000000 -0.100000
vn 0.000000 0.100000 0.000000
vn 0.000000 0.100000 0.000000
vn 0.000000 0.100000 0.000000
vn 0.000000 0.100000 0.000000
vn 0.000000 -0.100000 0.000000
vn 0.000000 -0.100000 0.000000
vn 0.000000 -0.100000 0.000000
vn 0.000000 -0.100000 0.000000
vn 0.000000 0.000000 0.100000
vn 0.000000 0.000000 0.100000
vn 0.000000 0.000000 0.100000
vn 0.000000 0.000000 0.100000
usemtl ABS_(Weiß)
f 1/1/1 2/2/2 3/3/3
f 4/4/4 5/5/5 6/6/6
f 7/7/7 8/8/8 9/9/9
f 10/10/10 11/11/11 12/12/12
f 13/13/13 14/14/14 15/15/15
f 15/16/16 14/17/17 9/18/18
f 9/18/18 14/17/17 7/19/19
f 16/20/20 17/21/21 18/22/22
f 19/23/23 20/24/24 21/25/25
f 22/26/26 23/27/27 24/28/28
f 21/29/29 20/30/30 23/31/31
f 23/31/31 20/30/30 24/32/32
f 17/33/33 22/34/34 18/35/35
f 18/35/35 22/34/34 24/36/36
f 22/37/37 13/38/38 23/39/39
f 23/39/39 13/38/38 15/40/40
f 8/41/41 19/42/42 9/43/43
f 9/43/43 19/42/42 21/44/44
f 11/45/45 20/46/46 12/47/47
f 12/47/47 20/46/46 19/48/48
f 11/49/49 10/50/50 18/51/51
f 18/51/51 10/50/50 16/52/52
f 16/53/53 4/54/54 17/55/55
f 17/55/55 4/54/54 6/56/56
f 5/57/57 14/58/58 6/59/59
f 6/59/59 14/58/58 13/60/60
f 1/61/61 10/62/62 2/63/63
f 2/63/63 10/62/62 12/64/64
f 2/65/65 8/66/66 3/67/67
f 3/67/67 8/66/66 7/68/68
f 5/69/69 4/70/70 3/71/71
f 3/71/71 4/70/70 1/72/72
f 7/73/73 14/74/74 3/75/75
f 3/75/75 14/74/74 5/76/76
f 24/77/77 20/78/78 18/79/79
f 18/79/79 20/78/78 11/80/80
f 23/81/81 15/82/82 21/83/83
f 21/83/83 15/82/82 9/84/84
f 17/85/85 6/86/86 22/87/87
f 22/87/87 6/86/86 13/88/88
f 19/89/89 8/90/90 12/91/91
f 12/91/91 8/90/90 2/92/92
f 10/93/93 1/94/94 16/95/95
f 16/95/95 1/94/94 4/96/96
# 24 vertices
# 96 texture params
# 96 normals
# 44 facets

# 1 groups
